<?xml version="1.0" encoding="UTF-8" standalone="no"?>
<svg
   xmlns:dc="http://purl.org/dc/elements/1.1/"
   xmlns:cc="http://creativecommons.org/ns#"
   xmlns:rdf="http://www.w3.org/1999/02/22-rdf-syntax-ns#"
   xmlns:svg="http://www.w3.org/2000/svg"
   xmlns="http://www.w3.org/2000/svg"
   xmlns:sodipodi="http://sodipodi.sourceforge.net/DTD/sodipodi-0.dtd"
   xmlns:inkscape="http://www.inkscape.org/namespaces/inkscape"
   version="1.1"
   id="Capa_1"
   x="0px"
   y="0px"
   width="128"
   height="56"
   viewBox="0 0 128 56.000002"
   xml:space="preserve"
   sodipodi:docname="logo.svg"
   inkscape:version="0.92.1 r15371"><metadata
     id="metadata9"><rdf:RDF><cc:Work
         rdf:about=""><dc:format>image/svg+xml</dc:format><dc:type
           rdf:resource="http://purl.org/dc/dcmitype/StillImage" /><dc:title></dc:title></cc:Work></rdf:RDF></metadata><defs
     id="defs7" /><sodipodi:namedview
     pagecolor="#ffffff"
     bordercolor="#666666"
     borderopacity="1"
     objecttolerance="10"
     gridtolerance="10"
     guidetolerance="10"
     inkscape:pageopacity="0"
     inkscape:pageshadow="2"
     inkscape:window-width="2160"
     inkscape:window-height="1346"
     id="namedview5"
     showgrid="false"
     inkscape:zoom="2.8043643"
     inkscape:cx="26.418241"
     inkscape:cy="13.087771"
     inkscape:window-x="-11"
     inkscape:window-y="-11"
     inkscape:window-maximized="1"
     inkscape:current-layer="Capa_1" /><g
     id="g4692"
     transform="translate(-1e-6,-3.721373)"
     style="fill:#ffffff"><path
       style="fill:#ffffff;stroke-width:0.02189475"
       inkscape:connector-curvature="0"
       id="path2"
       d="m 59.443441,15.983802 c -0.956809,-0.9568 -2.07125,-1.707791 -3.312681,-2.233264 -1.285229,-0.542991 -2.649261,-0.818865 -4.057104,-0.818865 -1.405642,0.0022 -2.769687,0.275874 -4.054903,0.821053 -1.241432,0.525475 -2.355872,1.276465 -3.312681,2.233266 -0.956796,0.956801 -1.707785,2.071244 -2.233258,3.312677 -0.542994,1.285223 -0.818875,2.649266 -0.818875,4.057099 0,1.405665 0.275881,2.771876 0.818875,4.05712 0.525473,1.241412 1.276462,2.355877 2.233258,3.312656 0.956809,0.956822 2.071249,1.70779 3.312681,2.233266 1.285216,0.543011 2.649261,0.818863 4.057091,0.818863 1.405655,0 2.771901,-0.275874 4.057104,-0.818863 1.241432,-0.525476 2.355898,-1.276444 3.312694,-2.233266 0.956783,-0.956779 1.707799,-2.071244 2.233274,-3.312656 0.54299,-1.285244 0.81883,-2.649265 0.81883,-4.05712 0,-1.405644 -0.27586,-2.771876 -0.81883,-4.057099 -0.52769,-1.243623 -1.278679,-2.355876 -2.235475,-3.314867 z M 46.306577,15.28536 c 0.09419,-0.07225 0.186109,-0.148885 0.282447,-0.216759 0.505775,-0.354695 1.066278,-0.641516 1.635535,-0.880169 1.212967,-0.507958 2.531038,-0.775074 3.849097,-0.775074 0.87798,0 1.777859,0.118236 2.62516,0.350316 -0.334986,0.135747 -0.744423,0.394106 -1.431891,0.980885 -0.571473,-0.06131 -1.149471,-0.06349 -1.729685,-0.0087 -0.757581,0.07225 -1.519501,0.240842 -2.263924,0.50358 -0.672161,0.236463 -1.204212,0.505769 -1.563286,0.711579 -0.549547,-0.197052 -1.25894,-0.429136 -1.609259,-0.542989 0.05472,0.01752 0.168587,-0.09415 0.205806,-0.122614 z m 9.493574,2.605476 -1.782237,4.865016 -4.276043,0.821053 -3.53382,-3.649857 c 0.238662,-1.655243 1.372799,-3.122191 1.372799,-3.122191 0.0065,-0.0044 0.746613,-0.538612 1.933316,-0.952423 0.691897,-0.243032 1.396887,-0.398484 2.099701,-0.464168 0.573648,-0.05255 1.145094,-0.04378 1.709987,0.02409 z m -13.28574,5.116805 c -0.10943,0.707201 -0.133557,1.440675 -0.0766,2.178529 -0.08546,-0.170758 -0.153268,-0.315241 -0.203618,-0.431306 -0.06566,-0.457599 -0.09849,-0.92617 -0.09849,-1.403454 0,-1.466948 0.317464,-2.861644 0.888923,-4.116213 -0.06344,0.656842 -0.03283,1.337769 0.01316,1.854485 -0.245228,0.615221 -0.420381,1.256737 -0.523284,1.917959 z m 0.864835,3.790005 c -0.100701,-0.370022 -0.218938,-0.908632 -0.278056,-1.554528 -0.06566,-0.729117 -0.04599,-1.453812 0.06344,-2.147898 0.08325,-0.532042 0.216763,-1.048736 0.40067,-1.54577 0.720336,-0.608675 1.674957,-0.965558 2.202618,-1.12977 l 3.468123,3.581983 -0.363451,3.925731 -3.389307,1.131958 c -0.862644,-0.634948 -1.56766,-1.475729 -2.104089,-2.261706 z m 10.299305,5.683857 c -0.75538,0.494822 -2.664595,0.613053 -3.439672,0.641495 -0.853893,-0.15981 -1.683711,-0.433494 -2.465367,-0.810107 -0.683116,-0.32842 -1.331203,-0.735663 -1.922359,-1.212925 0.01042,-0.01971 -0.09197,-1.06413 -0.08754,-1.445054 l 3.424338,-1.142929 3.952,1.709981 0.545157,2.252971 c -0.0039,0.0044 -0.0065,0.0065 -0.0065,0.0065 z m 6.56623,-3.46594 c -0.588968,0.849517 -1.293971,1.639917 -2.141298,2.239833 -0.794787,0.560507 -1.858851,0.753181 -2.80473,0.908634 -0.0723,0.01094 -0.976506,0.159809 -0.983072,0.129179 l -0.545157,-2.255159 2.782805,-2.896678 3.684886,-0.339368 c 0.05693,0.586801 0.131368,1.442865 0.175153,1.966172 -0.05693,0.08318 -0.111644,0.166378 -0.168587,0.247387 z m 0.05693,-2.947034 c -0.01316,0.0219 -0.02632,0.04597 -0.03934,0.07228 l -3.669553,0.337135 -1.974912,-3.454971 1.786614,-4.875962 2.522271,0.159831 c 0.536428,0.448842 1.011537,0.948043 1.414409,1.486654 0.503573,0.676548 0.895489,1.418781 1.162626,2.204802 -0.280269,2.434719 -0.926166,3.647645 -1.202047,4.070236 z m 1.315885,-5.478069 c -0.216739,-0.418191 -0.470747,-0.821053 -0.757571,-1.204212 -0.453223,-0.606485 -0.991827,-1.164802 -1.602694,-1.661812 -0.111644,-0.553937 -0.418192,-1.425349 -1.241431,-2.34055 0.01537,0.01094 0.03061,0.02409 0.04599,0.03503 0.05042,0.03722 0.09849,0.07663 0.14889,0.113859 0.567069,0.446653 1.083787,0.952421 1.541386,1.508549 0.849516,1.035622 1.491036,2.237644 1.86762,3.527245 -0.003,0.0087 -0.003,0.01532 -0.003,0.0219 z" /><path
       d="M 40.904979,13.269071 35.577521,33.426259 H 30.545254 L 27.199779,20.494172 q -0.267076,-1.012077 -0.323302,-2.263116 h -0.05623 q -0.126509,1.377549 -0.365471,2.263116 L 23.02496,33.426259 H 17.781846 L 12.482502,13.269071 h 4.961985 l 2.839437,13.424068 q 0.182735,0.857454 0.267075,2.305286 h 0.08434 q 0.05623,-1.08236 0.407642,-2.361513 l 3.65472,-13.367841 h 4.863589 l 3.303306,13.536521 q 0.182735,0.745001 0.323301,2.164719 h 0.05623 q 0.05623,-1.110473 0.295189,-2.249059 l 2.78321,-13.452181 z"
       style="font-style:normal;font-variant:normal;font-weight:bold;font-stretch:normal;font-size:21.33333397px;line-height:100%;font-family:'Segoe UI';-inkscape-font-specification:'Segoe UI Bold';letter-spacing:0px;word-spacing:0px;fill:#ffffff;fill-opacity:1;stroke:none;stroke-width:1.34943509px;stroke-linecap:butt;stroke-linejoin:miter;stroke-opacity:1"
       id="path4536"
       inkscape:connector-curvature="0" /><path
       d="M 65.307264,33.426259 V 13.269071 h 7.140761 q 10.739254,0 10.739254,9.825574 0,4.708967 -2.937833,7.52029 -2.923776,2.811324 -7.801421,2.811324 z M 69.84755,16.965961 v 12.777464 h 2.249059 q 2.951889,0 4.624627,-1.771133 1.686794,-1.771134 1.686794,-4.82142 0,-2.881607 -1.672738,-4.52623 -1.65868,-1.658681 -4.666796,-1.658681 z"
       style="font-style:normal;font-variant:normal;font-weight:bold;font-stretch:normal;font-size:21.33333397px;line-height:100%;font-family:'Segoe UI';-inkscape-font-specification:'Segoe UI Bold';letter-spacing:0px;word-spacing:0px;fill:#ffffff;fill-opacity:1;stroke:none;stroke-width:1.34943509px;stroke-linecap:butt;stroke-linejoin:miter;stroke-opacity:1"
       id="path4540"
       inkscape:connector-curvature="0" /><path
       d="m 85.63313,32.653145 v -4.498118 q 1.222925,1.026133 2.6567,1.546228 1.433775,0.506038 2.895662,0.506038 0.857454,0 1.490002,-0.154622 0.646605,-0.154624 1.068303,-0.421698 0.435755,-0.281134 0.646604,-0.646605 0.21085,-0.379529 0.21085,-0.815284 0,-0.590378 -0.33736,-1.054246 -0.337359,-0.463869 -0.927736,-0.857455 -0.576321,-0.393584 -1.377548,-0.759057 -0.801227,-0.365471 -1.728964,-0.745 -2.361511,-0.983963 -3.52821,-2.403681 -1.152643,-1.419718 -1.152643,-3.429814 0,-1.574341 0.632548,-2.698871 0.632547,-1.138586 1.714906,-1.86953 1.096416,-0.730944 2.530191,-1.068303 1.433775,-0.351415 3.036229,-0.351415 1.574342,0 2.783211,0.196793 1.222926,0.182736 2.249058,0.576321 v 4.202928 q -0.506038,-0.351415 -1.110472,-0.618491 -0.590378,-0.267076 -1.222925,-0.435755 -0.632548,-0.182736 -1.265096,-0.267076 -0.618492,-0.08434 -1.180757,-0.08434 -0.773113,0 -1.40566,0.154622 -0.632548,0.140567 -1.068304,0.407642 -0.435755,0.267076 -0.674717,0.646605 -0.238962,0.365472 -0.238962,0.82934 0,0.506038 0.267075,0.91368 0.267076,0.393585 0.759057,0.759058 0.491982,0.351414 1.194813,0.70283 0.70283,0.337359 1.588397,0.70283 1.20887,0.506039 2.164719,1.082361 0.969906,0.562263 1.658681,1.279151 0.688775,0.716887 1.054246,1.644624 0.365472,0.913681 0.365472,2.136606 0,1.686794 -0.646604,2.839437 -0.632547,1.138586 -1.728963,1.855473 -1.096416,0.702831 -2.558305,1.012077 -1.447832,0.309244 -3.064342,0.309244 -1.658681,0 -3.162739,-0.281132 -1.490001,-0.281131 -2.586417,-0.843396 z"
       style="font-style:normal;font-variant:normal;font-weight:bold;font-stretch:normal;font-size:21.33333397px;line-height:100%;font-family:'Segoe UI';-inkscape-font-specification:'Segoe UI Bold';letter-spacing:0px;word-spacing:0px;fill:#ffffff;fill-opacity:1;stroke:none;stroke-width:1.34943509px;stroke-linecap:butt;stroke-linejoin:miter;stroke-opacity:1"
       id="path4542"
       inkscape:connector-curvature="0" /><path
       d="m 101.77013,32.653145 v -4.498118 q 1.22292,1.026133 2.6567,1.546228 1.43377,0.506038 2.89566,0.506038 0.85745,0 1.49,-0.154622 0.64661,-0.154624 1.06831,-0.421698 0.43575,-0.281134 0.6466,-0.646605 0.21085,-0.379529 0.21085,-0.815284 0,-0.590378 -0.33736,-1.054246 -0.33736,-0.463869 -0.92774,-0.857455 -0.57632,-0.393584 -1.37754,-0.759057 -0.80123,-0.365471 -1.72897,-0.745 -2.36151,-0.983963 -3.52821,-2.403681 -1.15264,-1.419718 -1.15264,-3.429814 0,-1.574341 0.63255,-2.698871 0.63254,-1.138586 1.7149,-1.86953 1.09642,-0.730944 2.53019,-1.068303 1.43378,-0.351415 3.03623,-0.351415 1.57434,0 2.78321,0.196793 1.22293,0.182736 2.24906,0.576321 v 4.202928 q -0.50604,-0.351415 -1.11047,-0.618491 -0.59038,-0.267076 -1.22293,-0.435755 -0.63255,-0.182736 -1.26509,-0.267076 -0.61849,-0.08434 -1.18076,-0.08434 -0.77311,0 -1.40566,0.154622 -0.63255,0.140567 -1.0683,0.407642 -0.43576,0.267076 -0.67472,0.646605 -0.23896,0.365472 -0.23896,0.82934 0,0.506038 0.26707,0.91368 0.26708,0.393585 0.75906,0.759058 0.49198,0.351414 1.19481,0.70283 0.70283,0.337359 1.5884,0.70283 1.20887,0.506039 2.16472,1.082361 0.96991,0.562263 1.65868,1.279151 0.68877,0.716887 1.05425,1.644624 0.36547,0.913681 0.36547,2.136606 0,1.686794 -0.64661,2.839437 -0.63254,1.138586 -1.72896,1.855473 -1.09642,0.702831 -2.5583,1.012077 -1.44784,0.309244 -3.06435,0.309244 -1.65868,0 -3.16273,-0.281132 -1.49001,-0.281131 -2.58642,-0.843396 z"
       style="font-style:normal;font-variant:normal;font-weight:bold;font-stretch:normal;font-size:21.33333397px;line-height:100%;font-family:'Segoe UI';-inkscape-font-specification:'Segoe UI Bold';letter-spacing:0px;word-spacing:0px;fill:#ffffff;fill-opacity:1;stroke:none;stroke-width:1.34943509px;stroke-linecap:butt;stroke-linejoin:miter;stroke-opacity:1"
       id="path4544"
       inkscape:connector-curvature="0" /><g
       style="fill:#ffffff"
       transform="translate(2.6657891,15.134653)"
       id="g4617"><g
         style="fill:#ffffff"
         id="g4575"><path
           d="m 25.613597,24.434258 -2.960938,11.203125 h -2.796875 l -1.859375,-7.1875 q -0.148437,-0.5625 -0.179687,-1.257813 h -0.03125 q -0.07031,0.765625 -0.203125,1.257813 l -1.90625,7.1875 H 12.762034 L 9.8167219,24.434258 h 2.7578121 l 1.578125,7.460937 q 0.101563,0.476563 0.148438,1.28125 h 0.04687 q 0.03125,-0.601562 0.226562,-1.3125 l 2.03125,-7.429687 h 2.703125 l 1.835938,7.523437 q 0.101562,0.414063 0.179687,1.203125 h 0.03125 q 0.03125,-0.617187 0.164063,-1.25 l 1.546875,-7.476562 z"
           style="font-style:normal;font-variant:normal;font-weight:bold;font-stretch:normal;font-size:16px;line-height:100%;font-family:'Segoe UI';-inkscape-font-specification:'Segoe UI Bold';letter-spacing:0px;word-spacing:0px;fill:#ffffff;fill-opacity:1;stroke:none;stroke-width:1px;stroke-linecap:butt;stroke-linejoin:miter;stroke-opacity:1"
           id="path4509"
           inkscape:connector-curvature="0" /><path
           d="m 39.816722,35.637383 h -2.492188 v -6.703125 q 0,-1.085938 0.09375,-2.398438 h -0.0625 q -0.195312,1.03125 -0.351562,1.484375 l -2.625,7.617188 h -2.0625 L 29.644847,28.09832 q -0.109375,-0.304687 -0.351563,-1.5625 h -0.07031 q 0.101562,1.65625 0.101562,2.90625 v 6.195313 H 27.051097 V 24.434258 h 3.695312 l 2.289063,6.640625 q 0.273437,0.796875 0.398437,1.601562 h 0.04687 q 0.210938,-0.929687 0.445313,-1.617187 l 2.289062,-6.625 h 3.601563 z"
           style="font-style:normal;font-variant:normal;font-weight:bold;font-stretch:normal;font-size:16px;line-height:100%;font-family:'Segoe UI';-inkscape-font-specification:'Segoe UI Bold';letter-spacing:0px;word-spacing:0px;fill:#ffffff;fill-opacity:1;stroke:none;stroke-width:1px;stroke-linecap:butt;stroke-linejoin:miter;stroke-opacity:1"
           id="path4511"
           inkscape:connector-curvature="0" /></g><g
         style="fill:#ffffff"
         id="g4602"><path
           d="m 54.492325,26.114165 h -3.195312 v 9.148438 h -2.53125 v -9.148438 h -3.179688 v -2.054687 h 8.90625 z"
           style="font-style:normal;font-variant:normal;font-weight:bold;font-stretch:normal;font-size:16px;line-height:100%;font-family:'Segoe UI';-inkscape-font-specification:'Segoe UI Bold';letter-spacing:0px;word-spacing:0px;fill:#ffffff;fill-opacity:1;stroke:none;stroke-width:1px;stroke-linecap:butt;stroke-linejoin:miter;stroke-opacity:1"
           id="path4513"
           inkscape:connector-curvature="0" /><path
           d="m 57.00795,25.996978 q -0.625,0 -1.023437,-0.367188 -0.398438,-0.375 -0.398438,-0.914062 0,-0.554688 0.398438,-0.90625 0.398437,-0.351563 1.023437,-0.351563 0.632813,0 1.023438,0.351563 0.398437,0.351562 0.398437,0.90625 0,0.5625 -0.398437,0.921875 -0.390625,0.359375 -1.023438,0.359375 z m 1.21875,9.265625 h -2.46875 v -8 h 2.46875 z"
           style="font-style:normal;font-variant:normal;font-weight:bold;font-stretch:normal;font-size:16px;line-height:100%;font-family:'Segoe UI';-inkscape-font-specification:'Segoe UI Bold';letter-spacing:0px;word-spacing:0px;fill:#ffffff;fill-opacity:1;stroke:none;stroke-width:1px;stroke-linecap:butt;stroke-linejoin:miter;stroke-opacity:1"
           id="path4515"
           inkscape:connector-curvature="0" /><path
           d="M 62.82045,34.332915 H 62.7892 V 38.94229 H 60.32045 V 27.262603 h 2.46875 v 1.203125 h 0.03125 q 0.914063,-1.398438 2.570313,-1.398438 1.554687,0 2.398437,1.070313 0.851563,1.0625 0.851563,2.898437 0,2 -0.992188,3.210938 -0.984375,1.210937 -2.625,1.210937 -1.445312,0 -2.203125,-1.125 z m -0.07031,-3.28125 v 0.640625 q 0,0.828125 0.4375,1.351563 0.4375,0.523437 1.148437,0.523437 0.84375,0 1.304688,-0.648437 0.46875,-0.65625 0.46875,-1.851563 0,-2.109375 -1.640625,-2.109375 -0.757813,0 -1.242188,0.578125 -0.476562,0.570313 -0.476562,1.515625 z"
           style="font-style:normal;font-variant:normal;font-weight:bold;font-stretch:normal;font-size:16px;line-height:100%;font-family:'Segoe UI';-inkscape-font-specification:'Segoe UI Bold';letter-spacing:0px;word-spacing:0px;fill:#ffffff;fill-opacity:1;stroke:none;stroke-width:1px;stroke-linecap:butt;stroke-linejoin:miter;stroke-opacity:1"
           id="path4517"
           inkscape:connector-curvature="0" /><path
           d="M 72.75795,34.332915 H 72.7267 V 38.94229 H 70.25795 V 27.262603 h 2.46875 v 1.203125 h 0.03125 q 0.914063,-1.398438 2.570313,-1.398438 1.554687,0 2.398437,1.070313 0.851563,1.0625 0.851563,2.898437 0,2 -0.992188,3.210938 -0.984375,1.210937 -2.625,1.210937 -1.445312,0 -2.203125,-1.125 z m -0.07031,-3.28125 v 0.640625 q 0,0.828125 0.4375,1.351563 0.4375,0.523437 1.148437,0.523437 0.84375,0 1.304688,-0.648437 0.46875,-0.65625 0.46875,-1.851563 0,-2.109375 -1.640625,-2.109375 -0.757813,0 -1.242188,0.578125 -0.476562,0.570313 -0.476562,1.515625 z"
           style="font-style:normal;font-variant:normal;font-weight:bold;font-stretch:normal;font-size:16px;line-height:100%;font-family:'Segoe UI';-inkscape-font-specification:'Segoe UI Bold';letter-spacing:0px;word-spacing:0px;fill:#ffffff;fill-opacity:1;stroke:none;stroke-width:1px;stroke-linecap:butt;stroke-linejoin:miter;stroke-opacity:1"
           id="path4519"
           inkscape:connector-curvature="0" /><path
           d="m 79.672013,35.051665 v -2 q 0.609375,0.367188 1.210937,0.546875 0.609375,0.179688 1.148438,0.179688 0.65625,0 1.03125,-0.179688 0.382812,-0.179687 0.382812,-0.546875 0,-0.234375 -0.171875,-0.390625 -0.171875,-0.15625 -0.445312,-0.273437 -0.265625,-0.117188 -0.585938,-0.210938 -0.320312,-0.09375 -0.617187,-0.210937 -0.476563,-0.179688 -0.84375,-0.382813 -0.359375,-0.210937 -0.609375,-0.484375 -0.242188,-0.273437 -0.375,-0.632812 -0.125,-0.359375 -0.125,-0.851563 0,-0.671875 0.289062,-1.15625 0.296875,-0.484375 0.78125,-0.789062 0.492188,-0.3125 1.117188,-0.453125 0.632812,-0.148438 1.3125,-0.148438 0.53125,0 1.078125,0.08594 0.546875,0.07813 1.078125,0.234375 v 1.90625 q -0.46875,-0.273438 -1.007813,-0.40625 -0.53125,-0.140625 -1.046875,-0.140625 -0.242187,0 -0.460937,0.04687 -0.210938,0.03906 -0.375,0.125 -0.164063,0.07813 -0.257813,0.210937 -0.09375,0.125 -0.09375,0.289063 0,0.21875 0.140625,0.375 0.140625,0.15625 0.367188,0.273437 0.226562,0.109375 0.5,0.203125 0.28125,0.08594 0.554687,0.179688 0.492188,0.171875 0.890625,0.375 0.398438,0.203125 0.679688,0.476562 0.289062,0.273438 0.4375,0.640625 0.15625,0.367188 0.15625,0.875 0,0.710938 -0.3125,1.21875 -0.304688,0.5 -0.820313,0.820313 -0.507812,0.3125 -1.179687,0.453125 -0.664063,0.148437 -1.382813,0.148437 -1.320312,0 -2.445312,-0.40625 z"
           style="font-style:normal;font-variant:normal;font-weight:bold;font-stretch:normal;font-size:16px;line-height:100%;font-family:'Segoe UI';-inkscape-font-specification:'Segoe UI Bold';letter-spacing:0px;word-spacing:0px;fill:#ffffff;fill-opacity:1;stroke:none;stroke-width:1px;stroke-linecap:butt;stroke-linejoin:miter;stroke-opacity:1"
           id="path4521"
           inkscape:connector-curvature="0" /><path
           d="M 89.7267,34.332915 H 89.69545 V 38.94229 H 87.2267 V 27.262603 h 2.46875 v 1.203125 h 0.03125 q 0.914063,-1.398438 2.570313,-1.398438 1.554687,0 2.398437,1.070313 0.851563,1.0625 0.851563,2.898437 0,2 -0.992188,3.210938 -0.984375,1.210937 -2.625,1.210937 -1.445312,0 -2.203125,-1.125 z m -0.07031,-3.28125 v 0.640625 q 0,0.828125 0.4375,1.351563 0.4375,0.523437 1.148437,0.523437 0.84375,0 1.304688,-0.648437 0.46875,-0.65625 0.46875,-1.851563 0,-2.109375 -1.640625,-2.109375 -0.757813,0 -1.242188,0.578125 -0.476562,0.570313 -0.476562,1.515625 z"
           style="font-style:normal;font-variant:normal;font-weight:bold;font-stretch:normal;font-size:16px;line-height:100%;font-family:'Segoe UI';-inkscape-font-specification:'Segoe UI Bold';letter-spacing:0px;word-spacing:0px;fill:#ffffff;fill-opacity:1;stroke:none;stroke-width:1px;stroke-linecap:butt;stroke-linejoin:miter;stroke-opacity:1"
           id="path4523"
           inkscape:connector-curvature="0" /><path
           d="m 98.4142,25.996978 q -0.625,0 -1.023437,-0.367188 -0.398438,-0.375 -0.398438,-0.914062 0,-0.554688 0.398438,-0.90625 0.398437,-0.351563 1.023437,-0.351563 0.632813,0 1.023438,0.351563 0.398437,0.351562 0.398437,0.90625 0,0.5625 -0.398437,0.921875 -0.390625,0.359375 -1.023438,0.359375 z m 1.21875,9.265625 H 97.1642 v -8 h 2.46875 z"
           style="font-style:normal;font-variant:normal;font-weight:bold;font-stretch:normal;font-size:16px;line-height:100%;font-family:'Segoe UI';-inkscape-font-specification:'Segoe UI Bold';letter-spacing:0px;word-spacing:0px;fill:#ffffff;fill-opacity:1;stroke:none;stroke-width:1px;stroke-linecap:butt;stroke-linejoin:miter;stroke-opacity:1"
           id="path4525"
           inkscape:connector-curvature="0" /><path
           d="m 108.9142,31.965728 h -5.21875 q 0.125,1.742187 2.19531,1.742187 1.32031,0 2.32031,-0.625 v 1.78125 q -1.10937,0.59375 -2.88281,0.59375 -1.9375,0 -3.00781,-1.070312 -1.07031,-1.078125 -1.07031,-3 0,-1.992188 1.15625,-3.15625 1.15625,-1.164063 2.84375,-1.164063 1.75,0 2.70312,1.039063 0.96094,1.039062 0.96094,2.820312 z m -2.28906,-1.515625 q 0,-1.71875 -1.39063,-1.71875 -0.59375,0 -1.03125,0.492187 -0.42969,0.492188 -0.52344,1.226563 z"
           style="font-style:normal;font-variant:normal;font-weight:bold;font-stretch:normal;font-size:16px;line-height:100%;font-family:'Segoe UI';-inkscape-font-specification:'Segoe UI Bold';letter-spacing:0px;word-spacing:0px;fill:#ffffff;fill-opacity:1;stroke:none;stroke-width:1px;stroke-linecap:butt;stroke-linejoin:miter;stroke-opacity:1"
           id="path4527"
           inkscape:connector-curvature="0" /><path
           d="m 112.8517,35.262603 h -2.46875 v -11.84375 h 2.46875 z"
           style="font-style:normal;font-variant:normal;font-weight:bold;font-stretch:normal;font-size:16px;line-height:100%;font-family:'Segoe UI';-inkscape-font-specification:'Segoe UI Bold';letter-spacing:0px;word-spacing:0px;fill:#ffffff;fill-opacity:1;stroke:none;stroke-width:1px;stroke-linecap:butt;stroke-linejoin:miter;stroke-opacity:1"
           id="path4529"
           inkscape:connector-curvature="0" /></g></g></g></svg>